<?xml version="1.0" encoding="UTF-8"?>
<svg width="600" height="400" viewBox="0 0 600 400" fill="none" xmlns="http://www.w3.org/2000/svg">
  <!-- 背景圆形 -->
  <circle cx="300" cy="200" r="180" fill="#004d2d" fill-opacity="0.1"/>
  
  <!-- 图表元素 -->
  <path d="M100 300 L200 250 L300 280 L400 200 L500 150" stroke="#00bfae" stroke-width="4" fill="none"/>
  <path d="M100 250 L200 200 L300 230 L400 150 L500 100" stroke="#fff" stroke-width="4" fill="none"/>
  
  <!-- 数据点 -->
  <circle cx="100" cy="300" r="6" fill="#00bfae"/>
  <circle cx="200" cy="250" r="6" fill="#00bfae"/>
  <circle cx="300" cy="280" r="6" fill="#00bfae"/>
  <circle cx="400" cy="200" r="6" fill="#00bfae"/>
  <circle cx="500" cy="150" r="6" fill="#00bfae"/>
  
  <circle cx="100" cy="250" r="6" fill="#fff"/>
  <circle cx="200" cy="200" r="6" fill="#fff"/>
  <circle cx="300" cy="230" r="6" fill="#fff"/>
  <circle cx="400" cy="150" r="6" fill="#fff"/>
  <circle cx="500" cy="100" r="6" fill="#fff"/>
  
  <!-- AI 图标 -->
  <path d="M250 100 L350 100 L300 50 Z" fill="#00bfae"/>
  <circle cx="300" cy="100" r="20" fill="#fff"/>
  <path d="M290 90 L310 90 M300 80 L300 100" stroke="#00bfae" stroke-width="2"/>
</svg> 